# xmcd
#
# Track frame offsets: 
#        150
#        14993
#        30095
#        46847
#        72527
#        89321
#        101977
#        122804
#        138080
#        152867
#        164357
#        178631
#        208592
#
# Disc length: 2878 seconds
#
# Revision: 0
# Processed by: cddbd v1.5.2PL0 Copyright (c) Steve Scherf et al.
# Submitted via: ExactAudioCopy v0.99pb4
#
DISCID=b20b3c0d
DTITLE=Hank Wangford and The Lost Cowboys - Whistling In The Dark
DYEAR=2008
DGENRE=Country
TTITLE0=Lonely Together
TTITLE1=Little Bird Has Flown
TTITLE2=Gotta Get Rid Of That Man
TTITLE3=What You Want?
TTITLE4=Nothing For You (But For Me)
TTITLE5=Moping To Mopping
TTITLE6=Ballad Of Bill Pickett
TTITLE7=Told You So
TTITLE8=One Of Those Days
TTITLE9=Mr and Mrs Teardrops
TTITLE10=Jealousy
TTITLE11=Get What You Get
TTITLE12=Whistling In The Dark
EXTD=
EXTT0=
EXTT1=
EXTT2=
EXTT3=
EXTT4=
EXTT5=
EXTT6=
EXTT7=
EXTT8=
EXTT9=
EXTT10=
EXTT11=
EXTT12=
PLAYORDER=
